<svg width="80" height="63" viewBox="0 0 80 63" fill="none" xmlns="http://www.w3.org/2000/svg">
<path fill-rule="evenodd" clip-rule="evenodd" d="M70.6238 0.047962C70.4861 0.0861068 58.9134 2.14393 44.9066 4.62117C30.8997 7.09825 19.011 9.27217 18.4871 9.45206C14.3498 10.8729 10.5316 14.3093 8.61595 18.3365C8.14918 19.3179 7.33547 22.5734 4.11233 36.358C1.94855 45.611 0.126206 53.6689 0.0624574 54.2643C-0.283821 57.5005 0.817261 60.1333 3.17946 61.7179C4.64034 62.698 5.73975 62.9982 7.8765 63C9.43917 63.0015 12.3836 62.5108 35.1003 58.4641C49.1096 55.9685 60.9752 53.7881 61.4682 53.6189C65.6332 52.1885 69.4678 48.7513 71.3778 44.7363C71.8555 43.7316 72.6392 40.599 75.8899 26.6968C78.0537 17.4438 79.876 9.38594 79.9398 8.79044C80.1841 6.50626 79.6809 4.42911 78.5073 2.87717C77.7558 1.88358 76.111 0.7374 74.9111 0.37111C74.0894 0.12042 71.1596 -0.100453 70.6238 0.047962ZM73.8553 1.3762C75.8495 1.79796 77.3713 2.97112 78.2524 4.76592C78.684 5.64525 78.7142 5.84397 78.6993 7.70773L78.6835 9.70659L74.7476 26.4165C71.8267 38.8174 70.682 43.4031 70.3089 44.1988C69.2862 46.38 67.538 48.5416 65.5805 50.0451C64.4796 50.8908 62.2382 52.1108 61.0807 52.4947C60.2096 52.7835 10.2113 61.6849 8.52617 61.8512C6.40761 62.0602 4.23365 61.3103 2.85888 59.8963C1.79185 58.7989 1.32775 57.6111 1.24431 55.7635L1.17272 54.1811L5.18154 37.0549C9.3811 19.1142 9.43166 18.9333 10.8303 16.83C11.6507 15.596 13.2002 13.9478 14.4217 13.0097C15.5237 12.1633 17.7642 10.9439 18.924 10.5593C19.3552 10.4163 31.1079 8.2794 45.0409 5.81065C58.9738 3.34174 70.5612 1.28858 70.7907 1.24777C71.6479 1.09536 72.7442 1.14117 73.8553 1.3762ZM45.9254 6.95333C32.1118 9.41709 20.3217 11.563 19.7251 11.7223C16.0932 12.6909 12.2069 16.1221 10.7849 19.6152C10.5665 20.1518 8.62112 28.1545 6.46201 37.399C2.19253 55.6789 2.19403 55.6707 2.8684 57.47C3.26941 58.5396 4.30524 59.6056 5.42034 60.0965C7.20964 60.884 6.21419 61.0235 33.9099 56.1108C47.9071 53.6282 59.885 51.4416 60.5275 51.2519C64.1159 50.1925 67.8247 46.8606 69.2136 43.4486C69.4301 42.9169 71.3754 34.9156 73.5365 25.6679C77.8112 7.37659 77.8094 7.38708 77.1338 5.58478C76.7301 4.50807 75.6955 3.44851 74.5592 2.9483C72.7333 2.14459 73.4471 2.04465 45.9254 6.95333ZM44.7155 11.4757C47.6433 12.8904 47.3764 19.0013 44.0945 25.6974C41.9548 30.0636 39.4449 32.9969 36.5118 34.5598C35.4097 35.1472 35.231 35.1905 33.9099 35.1911C32.7505 35.1918 32.4102 35.1312 32.0461 34.8588C31.3802 34.3609 30.7779 33.3422 30.551 32.3304C30.3614 31.4841 30.3232 31.4356 29.9183 31.5234C29.6815 31.5747 29.0475 31.6878 28.5097 31.7746C26.3804 32.1181 25.5534 33.4555 23.7179 39.5228C22.9711 41.9911 22.9559 42.0833 23.3547 41.7334C23.7936 41.3483 25.0077 40.7721 25.3803 40.7721C25.8446 40.7721 26.4003 41.5491 26.4003 42.1984C26.4003 42.9585 25.9888 43.3355 25.3299 43.179C24.4643 42.9733 23.8669 43.0748 23.078 43.5615L22.3232 44.0274L21.3012 47.1055C20.7392 48.7983 20.0331 50.6706 19.7322 51.2661C18.0634 54.5683 15.9853 56.2632 13.6047 56.2632C11.8887 56.2632 11.098 55.4353 11.2657 53.8143C11.4376 52.1519 12.5533 51.0995 14.1441 51.0995C15.1473 51.0995 15.554 51.432 15.5505 52.2497C15.547 53.0747 15.3307 53.3564 14.7475 53.2952C14.1921 53.2371 13.7702 53.5792 13.6095 54.2187C13.4794 54.7362 13.9309 55.1518 14.4596 55.0009C15.8195 54.6126 16.6127 52.9546 18.5576 46.4355C20.5166 39.8686 20.9763 38.4781 21.7315 36.837C22.7735 34.5725 23.9219 33.0772 25.2084 32.3098L25.7687 31.9756L24.4575 31.8362C22.3646 31.6138 20.2733 31.709 19.0983 32.0797C16.8225 32.798 15.1587 34.6699 14.1117 37.6905C13.7016 38.8732 13.6487 39.2666 13.6419 41.1885C13.6349 43.1126 13.6776 43.4501 14.0249 44.2166C14.4673 45.1931 14.782 45.5302 15.3933 45.6824C15.9791 45.8282 16.7212 45.2369 16.7212 44.6244C16.7212 44.0229 16.4398 43.7704 15.77 43.7704C15.1515 43.7704 15.1061 43.6389 15.4778 42.9219C16.055 41.8077 17.7006 41.4014 18.481 42.1804C18.7969 42.4956 18.8907 42.7641 18.8907 43.3529C18.8907 46.3927 14.3251 48.3131 12.0762 46.2193C10.1369 44.4137 10.5055 39.8461 12.9048 35.9547C15.0747 32.435 18.1729 30.2501 22.5937 29.1214C24.6372 28.5997 28.66 27.9486 29.8492 27.947L30.5446 27.9461L30.7292 27.0716C31.0678 25.4667 31.9377 23.0533 32.932 20.9611C35.2747 16.0318 38.4276 12.5746 41.5484 11.513C42.9544 11.0347 43.7826 11.025 44.7155 11.4757ZM40.8272 13.1721C39.0357 13.8725 37.3492 16.3951 35.9344 20.4909C35.2931 22.347 34.5601 25.0546 34.2656 26.6552C34.0915 27.6005 34.0897 27.6 35.9746 27.1188C37.6516 26.6907 38.5369 26.2892 39.3321 25.5965L39.9812 25.0311L39.6573 25.5903C39.1181 26.5216 36.8906 28.4783 35.3635 29.362C33.9507 30.1797 33.9243 30.2067 33.9171 30.8418C33.9066 31.7859 34.2444 32.753 34.7133 33.1211C35.8721 34.031 37.6918 32.9344 39.2099 30.4114C40.8325 27.7146 42.7962 21.0955 43.181 17.0257C43.4455 14.2272 42.4206 12.5491 40.8272 13.1721ZM58.0026 15.9835C57.6962 17.0995 57.464 18.0313 57.4867 18.0538C57.5094 18.0764 57.8889 18.018 58.3302 17.924C58.7716 17.8301 59.1624 17.7831 59.1988 17.8194C59.2352 17.8557 59.1809 18.1587 59.0783 18.4929C58.9009 19.0699 58.8472 19.1057 57.9981 19.2116L57.1044 19.3231L56.8396 20.2615C55.4935 25.0288 55.4152 25.3621 55.5561 25.7286C55.7482 26.2279 56.2974 25.8155 57.3005 24.4183C57.5048 24.134 57.6286 24.0803 57.7686 24.2156C57.9101 24.3525 57.8093 24.6543 57.3743 25.3952C56.6437 26.6395 55.5721 27.7236 54.9348 27.8633C54.2461 28.0142 53.5542 27.6358 53.3456 26.9938L53.1727 26.462L52.6994 27.054C52.0845 27.8234 50.8285 28.6124 50.2191 28.6124C49.9235 28.6124 49.6024 28.4602 49.3857 28.2171L49.0329 27.8217L48.2325 28.4532C45.8051 30.3684 44.7569 28.7883 46.0118 25.1056C46.928 22.417 48.5815 20.3043 50.5053 19.365C51.4675 18.8951 53.144 18.6118 53.3114 18.8908C53.3588 18.9699 52.9896 20.4939 52.491 22.2777C51.9922 24.0613 51.6064 25.7097 51.6336 25.9408C51.6986 26.4963 52.1255 26.5542 52.6656 26.0807C53.007 25.7812 53.2314 25.224 53.6924 23.532C54.0168 22.341 54.3903 21.0028 54.5223 20.5582L54.7622 19.75L54.349 19.8536C53.8844 19.9699 53.8582 19.8889 54.1189 19.1427C54.2351 18.8102 54.4148 18.6181 54.6097 18.6181C55.0359 18.6181 55.1137 18.4564 55.7175 16.3113C56.01 15.2716 56.2882 14.3821 56.3358 14.3348C56.4684 14.2023 57.4636 13.9903 58.0416 13.9711L58.5596 13.9541L58.0026 15.9835ZM49.9928 20.8728C49.1305 21.7337 47.928 24.9032 47.928 26.3154C47.928 26.8156 47.9912 26.9467 48.2327 26.9467C48.8366 26.9467 49.2071 26.2131 49.915 23.6153C50.302 22.1953 50.6566 20.9023 50.703 20.7419C50.825 20.3208 50.4827 20.384 49.9928 20.8728ZM55.765 29.967C55.6826 30.254 54.8514 33.2944 53.918 36.7236C52.1559 43.1974 52.0901 43.6428 52.9836 43.0584C53.5065 42.7165 53.6051 42.4543 54.6813 38.5434C55.1824 36.7219 55.6297 35.1946 55.6753 35.149C55.7789 35.0457 57.0692 34.7925 57.5421 34.7829C57.8365 34.7767 57.8803 34.85 57.808 35.2271C57.7254 35.659 57.7629 35.6435 58.6656 34.8738L59.6096 34.0688V34.7662C59.6096 35.4861 59.8404 36.1081 60.1074 36.1081C60.1914 36.1081 60.3835 35.6682 60.5347 35.1307L60.8093 34.1532L61.9123 33.9708C62.5189 33.8706 63.0267 33.8044 63.0405 33.8239C63.0544 33.8434 62.6284 35.4335 62.0935 37.3574C61.1383 40.7937 60.9767 41.6049 61.2476 41.6049C61.5605 41.6049 62.3709 39.1077 63.6066 34.3343L63.7855 33.643L64.8878 33.4515C65.4942 33.346 66.0105 33.2824 66.0354 33.3097C66.1087 33.3905 63.5165 42.8702 63.1143 43.9927C62.0998 46.8236 60.6276 48.2555 58.7225 48.2641C57.703 48.2688 57.306 48.0534 57.0041 47.3322C56.5165 46.1673 57.3983 44.5846 58.6674 44.3469C59.5379 44.184 60.1103 44.5844 60.1103 45.3566C60.1103 45.8882 60.0694 45.9358 59.6135 45.9358C58.7327 45.9358 58.2184 47.2835 59.0536 47.4028C59.6213 47.4839 60.0756 46.828 60.6143 45.1491C61.2481 43.1744 61.2551 42.9673 60.6718 43.4251C60.1125 43.8643 59.4149 43.8666 59.0197 43.4307C58.4849 42.8409 58.6305 41.7175 59.7168 38.0533C59.8016 37.7671 59.7775 37.7648 59.2992 38.0117C58.5261 38.4108 57.8566 38.3485 57.4877 37.8433L57.1738 37.413L56.1973 41.0111C55.3558 44.1115 55.1723 44.6209 54.8702 44.692C54.6775 44.7373 54.1591 44.8394 53.7182 44.9189L52.9165 45.0633L53.0275 44.5418L53.1385 44.0202L52.6609 44.458C52.0172 45.048 51.5516 45.2695 50.9547 45.2695C50.438 45.2695 49.9305 44.9049 49.9305 44.5336C49.9305 44.4168 49.6205 44.6069 49.2417 44.956C48.0116 46.0895 46.8651 46.2296 46.4015 45.3032L46.1265 44.7536L45.7647 45.2608C45.3189 45.8857 44.1287 46.6021 43.5365 46.6021C43.2495 46.6021 42.9998 46.4553 42.8196 46.1808C42.4264 45.5818 42.5934 44.4775 43.5233 41.528C43.9465 40.1854 44.2489 39.0432 44.1953 38.9896C44.0101 38.8049 43.6309 39.2811 43.1997 40.2404C42.7945 41.1415 41.2527 46.2728 41.2527 46.72C41.2527 47.029 40.7205 47.2495 39.68 47.3716L38.7398 47.4819L38.9115 47.0312C39.1373 46.4383 39.121 46.2889 38.8667 46.6224C38.7533 46.7708 38.3697 47.0895 38.0142 47.3303C37.0517 47.9823 36.1852 47.901 35.892 47.1311L35.7301 46.706L35.4184 47.2176C35.0055 47.8953 34.4471 48.2678 33.8442 48.2678C33.0911 48.2678 32.7418 47.8475 32.7418 46.9412C32.7418 46.0622 34.6624 38.9268 34.9461 38.7517C35.1504 38.6258 36.9141 38.381 36.9904 38.4681C37.0171 38.4984 36.5981 40.135 36.0592 42.1047C35.0704 45.7194 34.9399 46.3739 35.2462 46.185C35.6023 45.9653 35.9893 44.918 36.935 41.6141C37.474 39.7312 37.9151 38.1814 37.9151 38.1702C37.9151 38.1591 38.2914 38.1 38.7515 38.0392C39.2116 37.9782 39.6997 37.8856 39.8362 37.8333C40.2209 37.6859 40.1616 37.9975 39.0881 41.768C37.9605 45.7291 37.9445 46.2348 38.9735 45.4271C39.4504 45.0526 39.6043 44.6155 40.7591 40.3557C41.1564 38.8898 41.501 37.6634 41.5247 37.6304C41.5486 37.5972 42.0668 37.4766 42.6762 37.3622L43.7843 37.1545L43.6833 37.6914L43.5824 38.2282L44.2344 37.6092C45.0282 36.8553 45.8364 36.6428 46.3052 37.0646C46.7813 37.493 46.6169 38.6976 45.6911 41.5668C44.8782 44.0864 44.824 44.3552 45.0952 44.5226C45.3398 44.6735 46.426 43.5365 46.426 43.1294C46.426 42.4948 47.4624 39.9249 48.1027 38.9715C48.9242 37.7482 49.7712 36.9406 51.0093 36.1995L52.0047 35.6037L52.6389 33.3157C52.9876 32.0573 53.3488 30.7507 53.4414 30.412C53.5904 29.8677 53.6915 29.7782 54.3152 29.6386C54.703 29.5519 55.2217 29.4729 55.4677 29.4631C55.8914 29.4463 55.9071 29.4727 55.765 29.967ZM50.8998 37.43C49.6557 38.4069 48.0686 43.3833 48.9438 43.5633C49.5208 43.6819 49.9317 43.046 50.424 41.2718C50.691 40.3099 51.0598 38.9795 51.2437 38.3152C51.4276 37.6509 51.5179 37.1075 51.4443 37.1075C51.3707 37.1075 51.1257 37.2526 50.8998 37.43ZM32.6658 39.8485C33.0265 40.2082 33.0754 40.4028 33.0735 41.4725C33.0725 42.1408 32.9622 43.0999 32.8287 43.6038C32.2468 45.7994 30.479 48.3123 29.0452 48.9824C28.1297 49.4103 26.9782 49.3595 26.4872 48.8694C25.9082 48.2914 25.8115 47.4564 26.1313 45.7914C26.6142 43.2763 28.006 40.9996 29.7266 39.9106C30.738 39.2705 32.0589 39.2425 32.6658 39.8485ZM30.1842 41.0732C29.4464 41.8869 28.4202 45.249 28.3807 46.9825C28.3687 47.5126 28.4012 47.9884 28.4531 48.0403C28.9761 48.5623 30.5278 44.5526 30.6926 42.2531C30.7891 40.909 30.6422 40.568 30.1842 41.0732Z" fill="#C62424"/>
</svg>
